<?xml version="1.0" standalone="no"?>
<!DOCTYPE svg PUBLIC "-//W3C//DTD SVG 20010904//EN"
 "http://www.w3.org/TR/2001/REC-SVG-20010904/DTD/svg10.dtd">
<svg version="1.0" xmlns="http://www.w3.org/2000/svg"
 width="598.000000pt" height="228.000000pt" viewBox="0 0 598.000000 228.000000"
 preserveAspectRatio="xMidYMid meet">

<g transform="translate(0.000000,228.000000) scale(0.100000,-0.100000)"
fill="#000000" stroke="none">
<path d="M1090 1733 l0 -408 71 -43 c38 -23 74 -42 80 -42 5 0 9 42 9 96 l0
95 278 -3 c263 -3 280 -4 335 -26 81 -33 168 -116 209 -200 31 -63 33 -73 33
-177 0 -100 -3 -115 -28 -166 -57 -118 -158 -198 -283 -224 -38 -8 -121 -15
-185 -15 l-117 0 -36 -69 c-20 -38 -36 -72 -36 -75 0 -3 85 -6 188 -6 272 0
362 30 497 165 113 113 165 236 165 392 0 207 -104 383 -294 498 -15 9 -13 16
19 60 127 177 57 429 -145 524 l-55 26 -352 3 -353 3 0 -408z m700 225 c24
-13 57 -40 74 -61 57 -71 45 -188 -26 -254 -52 -49 -81 -53 -343 -53 l-245 0
0 195 0 195 248 0 c237 0 250 -1 292 -22z"/>
<path d="M2520 1513 c0 -501 3 -618 15 -663 49 -185 194 -332 378 -385 76 -22
208 -22 283 0 186 54 324 191 378 374 14 47 16 136 16 668 l0 613 -75 0 -75 0
0 -574 c0 -345 -4 -595 -10 -627 -30 -160 -156 -283 -316 -309 -161 -27 -329
63 -405 217 l-24 48 -3 623 -3 622 -79 0 -80 0 0 -607z"/>
<path d="M3930 1285 l0 -835 445 0 445 0 0 80 0 80 -365 0 -365 0 0 755 0 755
-80 0 -80 0 0 -835z"/>
<path d="M5030 1285 l0 -835 445 0 445 0 0 80 0 80 -370 0 -370 0 0 755 0 755
-75 0 -75 0 0 -835z"/>
<path d="M931 1268 c-60 -13 -133 -87 -158 -158 -11 -34 -29 -61 -50 -77 -50
-38 -159 -71 -269 -82 -114 -10 -157 -25 -198 -70 -17 -17 -35 -31 -40 -31
-26 1 -59 41 -77 91 l-18 54 -1 -43 c0 -50 19 -92 54 -118 l24 -19 -18 -70
c-10 -38 -19 -83 -20 -100 -1 -42 -33 -108 -64 -132 -19 -15 -26 -30 -26 -55
0 -43 -36 -172 -56 -204 -11 -16 -14 -34 -10 -52 4 -15 6 -46 6 -69 -1 -37 2
-43 24 -49 35 -8 97 7 110 28 8 13 4 25 -22 57 -32 39 -32 40 -17 82 38 106
88 163 185 210 36 17 81 44 100 59 62 49 156 62 274 38 l58 -11 -7 -46 c-4
-25 -22 -91 -40 -146 -18 -55 -35 -129 -39 -165 -3 -36 -8 -75 -12 -86 -4 -17
0 -23 18 -27 25 -6 114 6 125 16 3 4 -8 36 -26 71 l-32 65 43 82 c23 45 61
101 83 125 l40 42 58 -11 c62 -12 73 -34 14 -29 -42 3 -60 -17 -83 -94 -14
-46 -13 -46 9 -41 12 3 47 9 77 13 66 8 84 16 130 59 19 18 49 39 65 46 71 33
27 179 -55 179 -16 0 -30 2 -30 5 0 3 15 28 34 56 19 27 37 57 40 67 5 15 15
17 75 12 39 -3 74 -10 79 -15 5 -6 12 -33 15 -61 5 -48 5 -51 -24 -61 -52 -20
-31 -54 39 -61 l50 -4 27 52 c15 30 51 76 81 103 42 38 54 56 54 78 0 37 23
38 56 2 58 -62 133 -82 182 -47 30 21 28 34 -7 34 -50 0 -76 16 -148 89 -54
55 -74 69 -90 65 -15 -4 -25 1 -34 17 -19 36 -100 119 -116 119 -8 0 -12 4 -9
9 3 5 -16 29 -43 54 -127 119 -281 180 -390 155z"/>
<path d="M1480 294 c0 -17 22 -14 28 4 2 7 -3 12 -12 12 -9 0 -16 -7 -16 -16z"/>
<path d="M2562 299 c2 -6 8 -10 13 -10 5 0 11 4 13 10 2 6 -4 11 -13 11 -9 0
-15 -5 -13 -11z"/>
<path d="M2930 195 c0 -70 4 -115 10 -115 6 0 10 45 10 115 0 70 -4 115 -10
115 -6 0 -10 -45 -10 -115z"/>
<path d="M3180 276 c0 -24 -5 -36 -17 -39 -17 -4 -17 -5 0 -6 15 -1 17 -12 17
-76 0 -43 4 -75 10 -75 6 0 10 31 10 74 0 69 2 75 23 79 l22 4 -22 2 c-19 1
-23 7 -23 36 0 19 -4 35 -10 35 -5 0 -10 -15 -10 -34z"/>
<path d="M3812 198 c-1 -73 2 -118 8 -118 6 0 10 24 10 53 0 60 20 97 54 97
36 0 46 -19 46 -87 0 -37 4 -63 10 -63 7 0 10 27 8 72 -3 66 -5 74 -30 87 -27
16 -24 16 -90 -17 -4 -2 -9 18 -11 45 -2 26 -4 -5 -5 -69z"/>
<path d="M4520 195 c0 -70 4 -115 10 -115 6 0 10 45 10 115 0 70 -4 115 -10
115 -6 0 -10 -45 -10 -115z"/>
<path d="M5470 294 c0 -9 5 -14 12 -12 18 6 21 28 4 28 -9 0 -16 -7 -16 -16z"/>
<path d="M1300 190 c0 -67 4 -110 10 -110 6 0 10 25 10 55 l0 55 45 0 c25 0
45 5 45 10 0 6 -20 10 -45 10 l-45 0 0 39 0 40 48 4 c46 3 46 3 -10 5 l-58 2
0 -110z"/>
<path d="M1632 234 c-12 -8 -22 -10 -22 -5 0 6 -4 11 -10 11 -6 0 -10 -33 -10
-80 0 -94 16 -107 22 -19 5 66 21 89 65 89 30 0 43 -28 43 -94 0 -35 4 -56 11
-56 8 0 10 23 7 71 -3 55 -8 74 -23 85 -25 18 -55 18 -83 -2z"/>
<path d="M1849 221 c-20 -20 -29 -39 -29 -61 0 -22 9 -41 29 -61 33 -33 65
-37 101 -12 17 12 25 13 28 5 2 -7 8 -12 13 -12 5 0 9 36 9 80 0 44 -4 80 -9
80 -5 0 -11 -5 -13 -12 -3 -8 -11 -7 -28 5 -36 25 -68 21 -101 -12z m110 -17
c12 -15 21 -34 21 -44 0 -29 -39 -70 -68 -70 -34 0 -72 37 -72 70 0 64 80 93
119 44z"/>
<path d="M2131 234 c-19 -14 -25 -14 -32 -3 -5 9 -9 -17 -9 -68 0 -49 4 -83
10 -83 6 0 10 26 10 58 0 63 18 92 56 92 34 0 44 -21 44 -87 0 -35 4 -63 10
-63 6 0 10 30 10 69 0 61 -3 72 -22 85 -29 20 -48 20 -77 0z"/>
<path d="M2359 235 c-58 -31 -56 -121 3 -151 36 -18 89 -12 109 13 12 15 12
16 -6 8 -11 -4 -36 -10 -56 -13 -30 -3 -40 1 -58 23 -27 36 -27 60 4 90 28 29
70 32 103 9 12 -8 22 -11 22 -5 0 16 -43 41 -70 41 -14 -1 -37 -7 -51 -15z"/>
<path d="M2707 239 c-9 -5 -24 -24 -33 -40 -21 -41 -4 -93 36 -114 36 -19 48
-19 83 -1 15 8 27 11 27 5 0 -5 5 -9 10 -9 6 0 10 33 10 80 0 47 -4 80 -10 80
-5 0 -10 -5 -10 -11 0 -5 -10 -3 -22 5 -26 18 -65 20 -91 5z m93 -29 c28 -28
27 -84 -2 -104 -49 -35 -111 -4 -111 54 0 61 71 92 113 50z"/>
<path d="M3347 239 c-28 -16 -49 -67 -42 -100 8 -36 49 -69 85 -69 31 0 83 36
74 52 -4 5 -14 1 -25 -11 -28 -30 -73 -27 -98 5 -12 15 -21 31 -21 35 0 5 36
9 81 9 79 0 80 0 74 23 -15 52 -83 82 -128 56z m85 -26 c34 -31 23 -43 -42
-43 -64 0 -73 9 -43 42 20 22 61 23 85 1z"/>
<path d="M3600 237 c-51 -26 -64 -90 -26 -134 20 -23 32 -28 69 -28 44 0 82
19 71 37 -3 5 -13 3 -23 -6 -28 -25 -76 -20 -100 10 -27 35 -27 65 2 92 27 25
79 29 97 7 7 -8 17 -12 23 -8 16 10 -31 43 -62 43 -14 0 -37 -6 -51 -13z"/>
<path d="M4082 234 c-12 -8 -22 -10 -22 -5 0 6 -4 11 -10 11 -6 0 -10 -33 -10
-80 0 -47 4 -80 10 -80 6 0 10 21 10 46 0 68 23 104 67 104 30 0 43 -28 43
-94 0 -35 4 -56 11 -56 8 0 10 23 7 71 -3 55 -8 74 -23 85 -25 18 -55 18 -83
-2z"/>
<path d="M4299 221 c-40 -40 -39 -82 1 -123 27 -26 36 -30 68 -25 45 8 72 38
72 82 0 47 -8 64 -41 80 -42 22 -67 18 -100 -14z m107 -17 c30 -29 27 -67 -8
-96 -65 -56 -146 36 -86 99 28 30 63 29 94 -3z"/>
<path d="M4653 226 c-22 -19 -28 -32 -28 -66 0 -82 88 -119 146 -61 20 20 29
39 29 61 0 22 -9 41 -29 61 -37 36 -79 38 -118 5z m104 -18 c29 -27 29 -65 1
-95 -29 -31 -71 -30 -97 3 -27 35 -26 59 4 89 30 31 62 32 92 3z"/>
<path d="M4907 230 c-45 -36 -44 -102 2 -137 21 -16 84 -16 99 -1 19 19 28 -1
11 -30 -19 -34 -80 -43 -110 -16 -11 9 -22 14 -27 10 -13 -13 39 -46 73 -46
47 0 64 8 80 41 17 32 21 189 5 189 -5 0 -10 -5 -10 -11 0 -5 -10 -3 -22 5
-31 22 -70 20 -101 -4z m103 -20 c42 -42 11 -113 -50 -113 -62 0 -90 65 -48
110 27 29 71 30 98 3z"/>
<path d="M5622 234 c-12 -8 -22 -10 -22 -5 0 6 -4 11 -10 11 -6 0 -10 -33 -10
-80 0 -47 4 -80 10 -80 6 0 10 25 10 55 0 62 22 95 65 95 32 0 45 -26 45 -94
0 -35 4 -56 11 -56 8 0 10 20 6 67 -4 53 -10 71 -27 85 -27 22 -49 23 -78 2z"/>
<path d="M5839 221 c-41 -41 -40 -90 2 -125 17 -14 41 -26 54 -26 34 0 75 21
75 37 0 12 -4 11 -22 -1 -53 -37 -118 -5 -118 58 0 58 67 86 117 51 13 -9 24
-11 28 -6 8 13 -47 41 -80 41 -16 0 -38 -12 -56 -29z"/>
<path d="M1493 160 c0 -47 2 -66 4 -42 2 23 2 61 0 85 -2 23 -4 4 -4 -43z"/>
<path d="M2573 160 c0 -47 2 -66 4 -42 2 23 2 61 0 85 -2 23 -4 4 -4 -43z"/>
<path d="M5155 164 c31 -73 32 -78 18 -111 -12 -30 -12 -56 1 -42 5 6 96 217
96 223 0 3 -4 6 -8 6 -5 0 -20 -27 -33 -60 -13 -33 -26 -60 -30 -60 -3 0 -17
27 -32 60 -14 33 -30 60 -36 60 -5 0 5 -34 24 -76z"/>
<path d="M5470 160 c0 -47 4 -80 10 -80 6 0 10 33 10 80 0 47 -4 80 -10 80 -6
0 -10 -33 -10 -80z"/>
</g>
</svg>
