<?xml version="1.0" standalone="no"?>
<!DOCTYPE svg PUBLIC "-//W3C//DTD SVG 20010904//EN"
 "http://www.w3.org/TR/2001/REC-SVG-20010904/DTD/svg10.dtd">
<svg version="1.0" xmlns="http://www.w3.org/2000/svg"
 width="1200.000000pt" height="628.000000pt" viewBox="0 0 1200.000000 628.000000"
 preserveAspectRatio="xMidYMid meet">

<g transform="translate(0.000000,628.000000) scale(0.100000,-0.100000)"
fill="#000000" stroke="none">
<path d="M0 3140 l0 -3140 6000 0 6000 0 0 3140 0 3140 -6000 0 -6000 0 0
-3140z m5385 758 c16 -35 47 -103 71 -153 23 -49 85 -182 137 -295 186 -401
300 -646 343 -739 24 -51 44 -95 44 -96 0 -5 119 -257 130 -277 9 -17 2 -18
-105 -18 l-116 0 -23 53 c-13 28 -44 95 -68 147 -25 52 -71 152 -103 223 l-58
127 -374 0 -374 0 -28 -62 c-15 -35 -70 -159 -122 -275 -56 -127 -100 -213
-108 -213 -7 0 -11 6 -8 13 5 13 254 573 347 782 32 72 75 168 95 215 21 47
50 112 65 145 15 33 69 156 121 273 51 116 97 212 100 212 3 0 19 -28 34 -62z
m-2787 30 c-4 -10 -84 -14 -334 -19 -300 -5 -336 -8 -404 -28 -205 -61 -353
-206 -416 -409 -43 -142 -56 -364 -29 -527 49 -301 179 -473 422 -558 l88 -31
334 -5 c267 -5 335 -9 339 -19 7 -22 -656 -11 -758 12 -325 73 -543 260 -629
540 -64 208 -44 458 51 639 117 220 372 374 673 407 39 4 204 8 368 9 235 1
298 -2 295 -11z m1217 -16 c245 -67 365 -199 365 -402 0 -203 -132 -350 -367
-411 -42 -10 -90 -20 -107 -20 -22 -1 -15 -4 22 -10 117 -20 225 -75 276 -142
32 -42 63 -113 111 -252 56 -166 94 -255 131 -307 l34 -48 -119 0 -118 0 -30
58 c-17 31 -63 149 -103 262 -84 237 -97 267 -151 325 -79 85 -175 108 -437
103 l-173 -3 1 -372 1 -373 -111 0 -110 0 0 811 0 811 403 -4 c373 -4 408 -6
482 -26z m3675 13 c0 -13 -53 -15 -415 -15 l-415 0 2 -382 3 -383 323 -3 c200
-1 322 -6 322 -12 0 -6 -122 -11 -322 -12 l-323 -3 -3 -397 -2 -398 -105 0
-105 0 0 810 0 810 520 0 c456 0 520 -2 520 -15z m1820 0 c0 -13 -42 -15 -320
-15 l-320 0 0 -795 0 -795 -105 0 -105 0 0 795 0 795 -315 0 c-273 0 -315 2
-315 15 0 13 89 15 740 15 651 0 740 -2 740 -15z m973 5 c136 -14 252 -47 367
-103 90 -44 116 -63 195 -141 73 -73 99 -107 133 -176 57 -116 73 -183 79
-335 4 -107 1 -146 -15 -221 -64 -285 -259 -494 -547 -583 -131 -41 -240 -51
-557 -51 -258 0 -298 2 -298 15 0 13 40 15 300 15 346 0 406 8 536 70 149 72
247 187 304 359 42 126 54 227 47 421 -4 125 -10 183 -26 238 -57 196 -156
322 -316 398 -133 64 -148 66 -512 71 -279 4 -333 7 -333 19 0 12 45 14 278
14 152 0 316 -5 365 -10z"/>
<path d="M5110 3368 c-78 -178 -158 -356 -176 -397 -19 -41 -34 -75 -34 -77 0
-2 162 -4 360 -4 198 0 360 4 360 9 0 8 -26 65 -117 261 -20 41 -43 93 -53
115 -10 22 -33 74 -53 115 -19 41 -56 122 -82 180 -26 58 -51 109 -55 113 -4
4 -71 -137 -150 -315z"/>
<path d="M3146 3885 c-9 -37 -6 -769 4 -785 11 -19 465 -8 538 13 113 33 193
103 234 206 19 48 22 75 22 186 0 124 -2 133 -30 195 -37 80 -111 149 -192
181 -53 21 -76 23 -313 27 l-256 4 -7 -27z"/>
</g>
</svg>
