<?xml version="1.0" standalone="no"?>
<!DOCTYPE svg PUBLIC "-//W3C//DTD SVG 20010904//EN"
 "http://www.w3.org/TR/2001/REC-SVG-20010904/DTD/svg10.dtd">
<svg version="1.0" xmlns="http://www.w3.org/2000/svg"
 width="256.000000pt" height="256.000000pt" viewBox="0 0 256.000000 256.000000"
 preserveAspectRatio="xMidYMid meet">

<g transform="translate(0.000000,256.000000) scale(0.100000,-0.100000)"
fill="#000000" stroke="none">
<path d="M1260 2394 c-138 -16 -321 -78 -400 -134 l-30 -22 31 -39 c19 -24 37
-38 45 -35 8 3 20 9 28 12 9 3 38 -27 86 -91 39 -53 73 -102 76 -109 3 -7 -7
-18 -21 -24 -25 -12 -26 -13 -10 -40 42 -71 33 -70 147 -14 167 83 308 122
438 122 62 0 149 -21 186 -44 13 -9 36 -24 51 -33 l28 -18 -24 33 c-79 112
-261 155 -480 113 l-115 -22 -18 23 c-10 13 -18 28 -18 34 0 17 170 65 254 71
92 7 192 -16 238 -55 23 -20 28 -21 18 -7 -19 31 -90 80 -145 101 -65 25 -290
26 -378 2 l-57 -16 -27 34 c-14 19 -24 36 -22 38 2 2 45 14 94 26 66 17 120
23 205 23 118 1 165 -10 215 -50 11 -9 0 4 -25 29 -60 59 -132 86 -247 92 -48
2 -104 2 -123 0z"/>
<path d="M661 1904 c0 -11 3 -14 6 -6 3 7 2 16 -1 19 -3 4 -6 -2 -5 -13z"/>
<path d="M772 1740 c0 -19 2 -27 5 -17 2 9 2 25 0 35 -3 9 -5 1 -5 -18z"/>
<path d="M820 1754 c0 -8 -4 -12 -10 -9 -18 11 -11 -6 37 -86 26 -43 50 -75
54 -71 4 4 9 25 12 47 6 35 3 44 -23 72 -17 18 -30 36 -30 41 0 6 -7 13 -16
16 -22 9 -24 8 -24 -10z"/>
<path d="M1837 1699 c-53 -76 -135 -147 -230 -196 -34 -18 -58 -32 -54 -33 16
0 125 60 173 96 58 43 93 82 136 147 48 74 29 63 -25 -14z"/>
<path d="M780 1691 c0 -6 4 -13 10 -16 6 -3 7 1 4 9 -7 18 -14 21 -14 7z"/>
<path d="M1028 1583 c7 -3 16 -2 19 1 4 3 -2 6 -13 5 -11 0 -14 -3 -6 -6z"/>
<path d="M1388 1423 c7 -3 16 -2 19 1 4 3 -2 6 -13 5 -11 0 -14 -3 -6 -6z"/>
<path d="M140 1248 c-2 -96 -20 -441 -26 -475 l-7 -43 202 0 201 0 0 28 c0 15
3 37 6 49 6 22 5 22 -127 25 l-134 3 1 30 c1 17 2 45 3 63 l1 32 115 0 115 0
0 50 0 50 -110 -7 -110 -6 0 61 0 62 130 0 130 0 0 34 c0 19 3 41 6 50 5 14
-16 16 -195 16 l-201 0 0 -22z"/>
<path d="M868 1208 l-3 -62 -70 -2 c-78 -2 -115 -14 -161 -49 -104 -79 -100
-290 6 -347 49 -26 149 -25 183 2 32 25 37 25 37 0 0 -19 5 -21 57 -18 56 3
57 4 59 33 1 17 4 113 8 215 3 102 9 209 12 238 l6 52 -65 0 -66 0 -3 -62z
m-12 -158 c13 0 9 -83 -8 -148 -12 -48 -48 -82 -85 -82 -38 0 -83 51 -83 95 0
42 20 94 44 114 20 17 75 31 101 25 11 -2 25 -4 31 -4z"/>
<path d="M1643 1244 c-43 -26 -43 -26 -43 -86 0 -61 3 -64 42 -31 10 9 18 11
22 4 4 -5 2 -76 -4 -158 -5 -81 -10 -169 -10 -195 l0 -48 68 0 69 0 6 203 c4
111 10 232 13 270 l7 67 -64 0 c-51 -1 -73 -6 -106 -26z"/>
<path d="M2278 1218 c-46 -10 -48 -12 -48 -44 0 -31 -3 -34 -30 -34 -29 0 -30
-1 -30 -50 0 -47 2 -50 26 -50 l26 0 -7 -123 -7 -123 27 -32 c26 -31 29 -32
105 -32 l79 0 10 38 c18 63 15 73 -16 61 -15 -5 -38 -7 -50 -4 -23 5 -24 8
-21 108 l3 102 48 3 47 3 0 50 0 49 -45 0 -45 0 0 45 c0 49 2 48 -72 33z"/>
<path d="M1946 1140 c-43 -8 -82 -44 -92 -87 -10 -40 19 -88 86 -140 44 -34
60 -52 58 -67 -2 -17 -11 -22 -50 -24 -25 -2 -62 4 -82 12 l-36 15 0 -53 c0
-52 1 -54 31 -60 17 -3 63 -6 101 -6 89 0 141 25 158 75 19 57 0 96 -76 156
-83 66 -82 84 1 84 33 0 66 -3 74 -5 12 -4 14 5 12 45 -2 28 -3 51 -4 51 -10
7 -151 10 -181 4z"/>
<path d="M1036 1048 c-16 -227 -8 -271 54 -303 37 -19 147 -19 180 0 32 18 40
18 40 0 0 -12 13 -15 59 -15 l59 0 6 98 c3 53 8 146 12 205 l6 108 -64 -3 -63
-3 -6 -115 c-8 -138 -12 -152 -49 -173 -38 -23 -76 -21 -101 4 -20 20 -21 28
-15 118 4 53 9 113 13 134 l6 37 -65 0 -65 0 -7 -92z"/>
</g>
</svg>
