<?xml version="1.0" standalone="no"?>
<!DOCTYPE svg PUBLIC "-//W3C//DTD SVG 20010904//EN"
 "http://www.w3.org/TR/2001/REC-SVG-20010904/DTD/svg10.dtd">
<svg version="1.0" xmlns="http://www.w3.org/2000/svg"
 width="225.000000pt" height="225.000000pt" viewBox="0 0 225.000000 225.000000"
 preserveAspectRatio="xMidYMid meet">

<g transform="translate(0.000000,225.000000) scale(0.100000,-0.100000)"
fill="#000000" stroke="none">
<path d="M160 1165 l0 -115 25 0 25 0 0 115 0 115 -25 0 -25 0 0 -115z"/>
<path d="M269 1191 c-47 -38 -22 -136 36 -141 41 -4 64 0 80 17 16 15 16 17 0
25 -10 6 -21 5 -30 -2 -19 -16 -65 -4 -65 15 0 11 13 15 55 15 52 0 55 1 55
25 0 58 -82 86 -131 46z m84 -25 c4 -10 -4 -15 -29 -18 -32 -4 -45 8 -27 25
12 12 51 7 56 -7z"/>
<path d="M544 1202 c-39 -25 -44 -93 -8 -129 21 -21 32 -24 60 -20 29 5 35 3
32 -11 -4 -20 -45 -29 -61 -13 -18 18 -49 13 -45 -6 6 -30 51 -48 94 -38 51
13 64 41 64 142 l0 81 -63 1 c-34 0 -67 -3 -73 -7z m75 -36 c7 -8 11 -27 9
-43 -3 -24 -8 -28 -33 -28 -25 0 -30 4 -33 28 -4 30 12 57 33 57 7 0 18 -6 24
-14z"/>
<path d="M720 1130 c0 -78 1 -80 24 -80 23 0 25 4 28 52 2 41 8 55 23 63 25
13 29 45 6 45 -9 0 -22 -5 -29 -12 -9 -9 -12 -9 -12 0 0 7 -9 12 -20 12 -18 0
-20 -7 -20 -80z"/>
<path d="M857 1192 c-10 -10 -17 -22 -17 -25 0 -11 29 -8 49 5 20 12 51 5 51
-12 0 -5 -18 -13 -40 -16 -48 -8 -75 -34 -65 -64 7 -23 50 -44 67 -33 6 3 28
6 48 5 l36 -2 -4 68 c-3 46 -9 71 -20 80 -24 18 -86 15 -105 -6z m83 -76 c0
-20 -16 -36 -36 -36 -25 0 -34 24 -11 33 15 7 47 8 47 3z"/>
<path d="M1030 1129 c0 -72 2 -79 20 -79 18 0 20 7 20 54 0 35 5 58 15 66 26
22 45 -5 45 -66 0 -47 2 -54 20 -54 18 0 20 7 20 54 0 35 5 58 15 66 26 22 45
-5 45 -66 0 -47 2 -54 20 -54 18 0 20 7 20 68 0 40 -5 73 -12 80 -15 15 -74
16 -83 2 -5 -7 -11 -8 -18 -1 -7 5 -38 9 -70 9 l-57 -1 0 -78z"/>
<path d="M1320 1129 c0 -72 2 -79 20 -79 18 0 20 7 20 54 0 61 19 88 45 66 10
-8 15 -31 15 -66 0 -47 2 -54 20 -54 17 0 20 7 20 48 0 60 20 93 44 73 11 -9
16 -30 16 -67 0 -47 2 -54 20 -54 18 0 20 7 20 68 0 40 -5 73 -12 80 -15 15
-74 16 -83 2 -5 -7 -11 -8 -18 -1 -7 5 -38 9 -70 9 l-57 -1 0 -78z"/>
<path d="M1622 1187 c-23 -25 -29 -75 -12 -107 16 -30 66 -42 106 -25 54 22
42 54 -14 33 -24 -9 -34 -9 -46 1 -28 24 -17 31 45 31 l61 0 -7 28 c-10 42
-34 62 -75 62 -25 0 -43 -7 -58 -23z m86 -24 c2 -9 -8 -13 -33 -13 -33 0 -36
2 -25 15 15 18 51 16 58 -2z"/>
<path d="M1920 1130 l0 -80 80 0 80 0 0 80 0 80 -80 0 -80 0 0 -80z"/>
</g>
</svg>
