<?xml version="1.0" standalone="no"?>
<!DOCTYPE svg PUBLIC "-//W3C//DTD SVG 20010904//EN"
 "http://www.w3.org/TR/2001/REC-SVG-20010904/DTD/svg10.dtd">
<svg version="1.0" xmlns="http://www.w3.org/2000/svg"
 width="1317.000000pt" height="617.000000pt" viewBox="0 0 1317.000000 617.000000"
 preserveAspectRatio="xMidYMid meet">

<g transform="translate(0.000000,617.000000) scale(0.100000,-0.100000)"
fill="#000000" stroke="none">
<path d="M4680 3540 c-189 -23 -295 -119 -322 -294 -14 -90 0 -203 32 -266 64
-126 169 -181 382 -200 167 -15 255 -60 288 -145 29 -75 10 -185 -43 -242 -68
-75 -300 -93 -418 -32 -59 30 -109 110 -109 175 0 23 -2 24 -90 24 l-90 0 0
-49 c0 -27 9 -78 20 -114 53 -170 204 -257 450 -257 169 0 284 36 368 114 144
135 156 427 24 577 -35 40 -125 91 -191 109 -24 6 -95 15 -158 20 -136 10
-204 37 -249 96 -27 35 -29 44 -29 123 0 103 18 136 93 173 39 19 63 23 142
23 79 0 103 -4 143 -23 54 -27 91 -81 102 -149 l7 -43 90 0 91 0 -6 66 c-17
181 -129 288 -331 314 -80 11 -104 11 -196 0z"/>
<path d="M5917 3543 c-3 -5 -89 -314 -191 -688 -103 -374 -189 -688 -192 -697
-5 -16 4 -18 88 -18 l94 0 28 104 c17 63 34 107 43 110 8 3 109 6 224 6 243 0
221 11 260 -132 l24 -88 92 0 c70 0 91 3 88 13 -6 18 -375 1387 -375 1393 0 7
-179 4 -183 -3z m187 -707 c58 -214 73 -282 64 -288 -19 -11 -326 -10 -333 2
-7 12 141 559 157 578 9 11 14 11 24 0 7 -7 47 -139 88 -292z"/>
<path d="M6750 2845 l0 -705 90 0 90 0 0 188 0 189 96 127 c52 70 101 126 107
124 7 -2 83 -144 170 -316 l157 -312 120 0 121 0 -17 33 c-9 17 -106 199 -215
404 -110 205 -199 377 -199 383 0 6 94 135 208 288 114 152 211 283 216 290 6
9 -19 12 -111 12 l-118 0 -249 -330 c-167 -221 -255 -330 -265 -328 -14 3 -16
43 -19 331 l-2 327 -90 0 -90 0 0 -705z"/>
<path d="M7970 3083 c0 -260 5 -499 10 -538 15 -98 58 -184 130 -259 96 -100
203 -146 340 -146 182 0 346 103 428 269 l37 75 3 533 3 533 -91 0 -90 0 0
-488 c0 -557 0 -556 -75 -640 -117 -130 -313 -130 -429 -1 -77 86 -76 78 -76
636 l0 493 -95 0 -95 0 0 -467z"/>
<path d="M9200 2845 l0 -705 90 0 90 0 2 303 3 302 90 2 90 3 180 -305 180
-305 112 0 112 0 -180 302 c-99 166 -178 307 -175 315 3 7 12 13 21 13 27 0
95 40 140 81 246 227 129 636 -196 689 -35 5 -175 10 -311 10 l-248 0 0 -705z
m603 485 c137 -92 131 -284 -10 -367 -46 -27 -54 -28 -206 -32 -86 -2 -168 0
-182 3 l-25 6 0 211 0 210 193 -3 c187 -3 195 -4 230 -28z"/>
<path d="M10805 3538 c-3 -7 -88 -317 -190 -688 -102 -371 -188 -683 -191
-692 -5 -16 4 -18 88 -18 l93 0 24 88 c39 143 17 132 260 132 115 0 216 -3
224 -6 9 -3 27 -47 44 -110 l28 -104 94 0 c70 0 92 3 88 13 -2 6 -86 316 -186
687 -100 371 -185 683 -187 693 -5 14 -18 17 -95 17 -63 0 -91 -4 -94 -12z
m190 -702 c61 -221 74 -281 63 -287 -18 -12 -325 -11 -333 0 -6 11 143 561
158 579 8 11 13 11 23 0 7 -7 47 -139 89 -292z"/>
<path d="M2640 2822 c-185 -124 -342 -297 -433 -477 -103 -206 -114 -478 -29
-700 l27 -70 95 -6 c52 -4 220 -8 372 -10 l278 -3 31 30 c43 41 114 189 134
280 26 113 17 290 -20 404 -53 167 -182 379 -337 554 l-43 48 -75 -50z"/>
</g>
</svg>
