<?xml version="1.0" standalone="no"?>
<!DOCTYPE svg PUBLIC "-//W3C//DTD SVG 20010904//EN"
 "http://www.w3.org/TR/2001/REC-SVG-20010904/DTD/svg10.dtd">
<svg version="1.0" xmlns="http://www.w3.org/2000/svg"
 width="225.000000pt" height="225.000000pt" viewBox="0 0 225.000000 225.000000"
 preserveAspectRatio="xMidYMid meet">

<g transform="translate(0.000000,225.000000) scale(0.100000,-0.100000)"
fill="#000000" stroke="none">
<path d="M560 1840 l0 -410 163 -1 c89 -1 167 -2 172 -4 6 -1 13 -3 16 -3 3
-1 -1 -30 -11 -64 -26 -94 -41 -102 -206 -106 -74 -2 -134 -8 -134 -13 0 -5
19 -10 43 -11 23 -1 4 -5 -43 -8 -81 -6 -80 -6 48 -8 147 -2 144 -1 121 -73
-25 -78 -48 -99 -110 -99 -19 0 -28 -4 -24 -11 4 -6 -2 -13 -14 -16 -12 -3
-21 -11 -21 -18 0 -8 -8 -16 -17 -18 -17 -4 -17 -5 0 -6 16 -1 17 -31 17 -486
l0 -485 845 0 845 0 0 1125 0 1125 -845 0 -845 0 0 -410z m595 -421 c3 -4 -18
-97 -45 -207 -28 -110 -50 -208 -50 -218 0 -9 7 -26 17 -36 22 -24 159 -26
204 -2 30 15 31 15 23 -8 -19 -60 -45 -108 -64 -118 -31 -16 -153 -24 -244
-15 -65 6 -83 11 -108 34 -27 24 -31 34 -31 82 1 60 86 410 110 447 8 13 29
30 46 38 33 14 134 17 142 3z m895 -19 c0 -29 -35 -72 -77 -97 -45 -26 -56
-28 -204 -33 -188 -7 -202 -12 -219 -94 -6 -30 -16 -59 -23 -64 -7 -5 -46 -12
-86 -16 -47 -4 -82 -13 -93 -23 -10 -9 -18 -13 -18 -9 0 30 75 295 87 309 9 9
30 21 47 26 45 13 586 14 586 1z m30 -221 c0 -23 -62 -254 -76 -280 -7 -15
-30 -41 -51 -56 l-36 -28 -299 -3 c-164 -2 -298 -1 -298 0 0 2 9 21 20 43 11
22 20 45 20 52 0 7 17 21 38 31 31 16 70 20 237 26 110 4 204 11 208 15 5 5
15 35 23 67 22 82 35 99 91 113 26 7 62 16 78 21 42 11 45 11 45 -1z m-1413
-195 c-9 -9 -93 -18 -85 -9 8 9 80 24 87 18 2 -2 2 -6 -2 -9z"/>
<path d="M438 1433 c7 -3 16 -2 19 1 4 3 -2 6 -13 5 -11 0 -14 -3 -6 -6z"/>
<path d="M464 1020 c0 -13 4 -16 10 -10 7 7 7 13 0 20 -6 6 -10 3 -10 -10z"/>
<path d="M420 1025 c0 -5 5 -17 10 -25 5 -8 10 -10 10 -5 0 6 -5 17 -10 25 -5
8 -10 11 -10 5z"/>
<path d="M523 1023 c9 -2 23 -2 30 0 6 3 -1 5 -18 5 -16 0 -22 -2 -12 -5z"/>
</g>
</svg>
