<?xml version="1.0" standalone="no"?>
<!DOCTYPE svg PUBLIC "-//W3C//DTD SVG 20010904//EN"
 "http://www.w3.org/TR/2001/REC-SVG-20010904/DTD/svg10.dtd">
<svg version="1.0" xmlns="http://www.w3.org/2000/svg"
 width="225.000000pt" height="225.000000pt" viewBox="0 0 225.000000 225.000000"
 preserveAspectRatio="xMidYMid meet">

<g transform="translate(0.000000,225.000000) scale(0.100000,-0.100000)"
fill="#000000" stroke="none">
<path d="M10 1125 l0 -1125 1120 0 1120 0 0 1125 0 1125 -1120 0 -1120 0 0
-1125z m1261 812 c70 -34 142 -105 177 -177 23 -47 27 -67 27 -145 0 -79 -3
-97 -28 -145 -72 -138 -87 -172 -87 -190 0 -11 -4 -20 -10 -20 -5 0 -10 8 -10
18 0 12 -3 13 -8 5 -6 -9 -18 -4 -45 18 -20 17 -35 34 -32 39 3 5 -3 10 -12
13 -16 3 -16 5 2 12 11 4 44 24 74 44 165 111 132 374 -61 472 -59 30 -160 37
-226 15 -62 -21 -142 -90 -166 -144 -15 -34 -61 -71 -72 -59 -2 2 3 26 11 54
26 88 125 178 235 214 51 17 171 4 231 -24z m-258 -155 c27 -29 47 -88 47
-137 0 -38 -3 -45 -20 -46 -11 -1 -26 -2 -32 -3 -7 -1 -13 10 -13 24 0 23 -4
25 -42 24 -99 -2 -210 -79 -254 -177 -18 -40 -23 -69 -23 -127 0 -92 30 -157
99 -218 56 -49 119 -72 199 -72 43 0 69 -6 90 -19 l30 -20 -30 -8 c-16 -4 -63
-8 -104 -7 -60 1 -86 6 -132 28 -80 39 -138 94 -173 162 -27 54 -30 68 -30
159 0 89 3 106 28 157 55 113 142 177 272 201 83 15 101 34 65 72 -17 18 -20
25 -8 25 8 0 22 -8 31 -18z m605 -287 c24 -44 27 -61 27 -145 0 -85 -3 -101
-29 -155 -36 -72 -103 -141 -171 -175 -43 -21 -63 -25 -140 -24 -169 1 -280
74 -338 221 -14 37 -14 42 -1 47 31 12 42 5 58 -39 25 -63 94 -129 164 -155
179 -68 378 50 406 240 8 56 -15 147 -49 198 -15 22 -25 51 -25 71 l0 35 36
-35 c20 -18 48 -56 62 -84z m-568 -145 c0 -24 -4 -30 -21 -30 -12 0 -23 -8
-26 -19 -6 -22 -53 -36 -53 -15 0 9 -10 11 -34 7 -28 -4 -34 -2 -39 18 -3 13
-4 25 -2 27 5 5 143 40 163 41 7 1 12 -11 12 -29z m360 -439 c0 -29 -5 -40
-18 -44 -11 -2 -21 -14 -25 -26 -4 -17 -1 -21 17 -21 12 0 27 -5 34 -12 9 -9
12 -9 12 0 0 7 9 12 20 12 16 0 20 7 20 31 0 46 58 101 102 97 29 -3 33 -7 36
-35 3 -27 -1 -35 -22 -45 -34 -15 -35 -48 -1 -48 22 0 25 -4 25 -39 0 -33 -4
-40 -22 -43 -22 -3 -23 -8 -26 -95 l-3 -93 -44 0 -45 0 0 91 c0 82 -2 91 -20
96 -11 3 -20 10 -20 15 0 5 -7 2 -16 -7 -9 -9 -23 -14 -30 -11 -11 4 -14 -11
-14 -77 0 -45 -4 -88 -9 -95 -5 -8 -23 -12 -47 -10 l-39 3 -3 89 c-2 78 -5 89
-22 93 -27 7 -29 73 -2 80 11 3 23 21 30 49 13 49 56 84 105 84 25 0 27 -3 27
-39z m-579 -28 c33 -20 53 -63 52 -112 -1 -27 -9 -43 -37 -68 -30 -28 -43 -33
-86 -33 l-50 0 0 -60 0 -60 -50 0 -50 0 0 175 0 175 96 0 c72 0 103 -4 125
-17z m177 -132 c3 -101 11 -121 48 -121 40 0 54 35 54 132 l0 88 45 0 45 0 0
-150 0 -150 -34 0 c-22 0 -36 6 -40 16 -5 13 -9 14 -20 5 -27 -22 -79 -32
-113 -20 -58 19 -77 60 -81 171 -5 125 -3 130 50 126 l43 -3 3 -94z m-73 -241
c3 -5 1 -10 -4 -10 -6 0 -11 5 -11 10 0 6 2 10 4 10 3 0 8 -4 11 -10z m615 0
c0 -5 -5 -10 -11 -10 -5 0 -7 5 -4 10 3 6 8 10 11 10 2 0 4 -4 4 -10z m-860
-40 c0 -22 -4 -40 -10 -40 -5 0 -10 18 -10 40 0 22 5 40 10 40 6 0 10 -18 10
-40z m-35 20 c-3 -5 -13 -10 -21 -10 -8 0 -14 -7 -14 -15 0 -8 9 -15 20 -15
11 0 20 -4 20 -10 0 -5 -11 -10 -25 -10 -18 0 -26 7 -31 24 -8 33 2 46 32 46
14 0 22 -4 19 -10z m515 4 c0 -3 -7 -12 -15 -21 -9 -8 -13 -18 -9 -22 4 -3 9
0 11 7 5 12 43 18 43 6 0 -11 -34 -33 -52 -34 -19 0 -26 15 -20 47 3 14 11 23
23 23 11 0 19 -3 19 -6z m134 -1 c4 -4 19 -7 34 -8 22 0 27 -5 27 -25 0 -34
-37 -40 -54 -8 l-12 23 5 -22 c3 -15 -1 -23 -10 -23 -8 0 -14 6 -15 13 0 10
-2 10 -6 0 -10 -25 -23 -12 -23 22 0 30 3 35 23 35 13 0 27 -3 31 -7z m-549
-13 c11 -18 -6 -50 -26 -50 -22 0 -34 22 -25 45 6 17 42 20 51 5z m149 -6 c9
-24 7 -44 -4 -44 -6 0 -15 10 -20 23 -8 21 -9 21 -9 2 -1 -17 -8 -21 -46 -23
-47 -2 -63 12 -51 43 8 22 121 21 130 -1z m36 -14 c0 -16 -4 -30 -10 -30 -5 0
-10 14 -10 30 0 17 5 30 10 30 6 0 10 -13 10 -30z m68 -2 c2 -16 -1 -28 -7
-28 -6 0 -11 9 -11 20 0 11 -4 20 -10 20 -5 0 -10 -9 -10 -20 0 -11 -4 -20
-10 -20 -5 0 -10 14 -10 31 0 27 3 30 28 27 21 -2 28 -9 30 -30z m70 -5 c-2
-30 -8 -39 -25 -41 -17 -2 -23 3 -28 27 -8 38 0 51 31 51 23 0 25 -3 22 -37z
m367 7 c0 -18 -6 -26 -22 -28 -13 -2 -23 -8 -23 -13 0 -5 -4 -9 -10 -9 -5 0
-10 18 -10 41 0 39 1 40 33 37 27 -2 32 -7 32 -28z m75 0 c0 -25 -4 -30 -25
-30 -14 0 -28 7 -31 15 -10 25 4 45 31 45 21 0 25 -5 25 -30z m31 8 l2 -23 4
23 c3 15 11 22 29 22 13 0 24 -4 24 -10 0 -5 -4 -10 -10 -10 -5 0 -10 -8 -10
-18 0 -14 -8 -19 -30 -19 -26 0 -30 4 -30 29 0 33 19 38 21 6z m-896 -130 c18
-4 25 0 28 16 2 12 4 -1 4 -29 0 -27 -2 -40 -4 -27 -3 15 -11 22 -28 22 -17 0
-25 -7 -28 -22 -2 -13 -4 0 -4 27 -1 28 1 43 4 34 2 -9 15 -19 28 -21z m199
16 c9 -8 16 -22 16 -29 0 -7 -7 -21 -16 -29 -30 -30 -74 -13 -74 29 0 42 44
59 74 29z m116 -25 c0 -19 5 -29 14 -29 8 0 18 -4 21 -10 4 -6 -7 -10 -24 -10
-30 0 -31 1 -31 46 0 27 4 43 10 39 6 -3 10 -19 10 -36z m186 16 c12 -18 11
-24 -2 -43 -8 -12 -26 -22 -40 -22 -22 0 -24 4 -24 46 0 43 1 45 26 42 15 -2
33 -12 40 -23z m101 -42 c-2 -16 -4 -5 -4 22 0 28 2 40 4 28 2 -13 2 -35 0
-50z m128 37 l20 -30 6 32 c5 28 7 26 7 -17 l1 -50 -29 34 -29 34 -4 -34 c-3
-28 -4 -25 -5 14 -1 26 1 47 6 47 4 0 16 -14 27 -30z m195 20 c0 -5 -9 -9 -21
-7 -12 1 -26 -6 -33 -16 -9 -15 -7 -21 9 -33 18 -13 21 -13 32 3 12 15 13 15
13 -5 0 -16 -6 -22 -23 -22 -29 0 -47 18 -47 45 0 12 5 26 12 33 14 14 58 16
58 2z"/>
<path d="M710 785 c0 -33 2 -35 34 -35 36 0 51 18 41 51 -5 14 -16 19 -41 19
-32 0 -34 -2 -34 -35z"/>
<path d="M790 460 c0 -5 5 -10 10 -10 6 0 10 5 10 10 0 6 -4 10 -10 10 -5 0
-10 -4 -10 -10z"/>
<path d="M1040 460 c0 -5 5 -10 10 -10 6 0 10 5 10 10 0 6 -4 10 -10 10 -5 0
-10 -4 -10 -10z"/>
<path d="M1405 460 c3 -5 10 -10 16 -10 5 0 9 5 9 10 0 6 -7 10 -16 10 -8 0
-12 -4 -9 -10z"/>
<path d="M1480 460 c0 -5 5 -10 10 -10 6 0 10 5 10 10 0 6 -4 10 -10 10 -5 0
-10 -4 -10 -10z"/>
<path d="M802 348 c-7 -7 -12 -18 -12 -25 0 -15 30 -32 48 -26 17 7 15 50 -4
57 -20 8 -18 8 -32 -6z"/>
<path d="M1107 354 c-10 -10 -9 -52 2 -58 4 -3 17 1 27 9 15 11 17 18 8 31
-12 20 -27 27 -37 18z"/>
</g>
</svg>
